<svg xmlns="http://www.w3.org/2000/svg" xmlns:xlink="http://www.w3.org/1999/xlink" xmlns:svgjs="http://svgjs.com/svgjs" version="1.1" width="512" height="512" x="0" y="0" viewBox="0 0 512 512" style="enable-background:new 0 0 512 512" xml:space="preserve"><g><path d="M301 242h-90c-8.401 0-15 6.599-15 15v239.893c0 11.999 13.5 19.2 23.401 12.599l36.599-24.3 53.401-35.7c4.199-2.999 6.599-7.5 6.599-12.599V257c0-8.401-6.599-15-15-15z" style="" fill="#17ace8" data-original="#17ace8"/><path d="M316 257v179.893c0 5.099-2.401 9.6-6.599 12.599L256 485.192V242h45c8.401 0 15 6.599 15 15z" style="" fill="#1689fc" data-original="#1689fc"/><path d="M496 90 316 272H196L16 90l21.599-15H471.7z" style="" fill="#1689fc" data-original="#1689fc"/><path d="M496 90 316 272h-60V75h215.7z" style="" fill="#136ef1" data-original="#136ef1"/><path d="M496 15v75H16V15c0-8.401 6.599-15 15-15h450c8.401 0 15 6.599 15 15z" style="" fill="#17ace8" data-original="#17ace8"/><path d="M496 15v75H256V0h225c8.401 0 15 6.599 15 15z" style="" fill="#1689fc" data-original="#1689fc"/></g></svg>